<svg viewBox="0 0 40 40" fill="none" xmlns="http://www.w3.org/2000/svg">
  <defs>
    <linearGradient id="bg" x1="0" y1="0" x2="40" y2="40" gradientUnits="userSpaceOnUse">
      <stop offset="0%" stop-color="#06b6d4" />
      <stop offset="100%" stop-color="#3b82f6" />
    </linearGradient>
    <linearGradient id="accent" x1="16" y1="18" x2="28" y2="28" gradientUnits="userSpaceOnUse">
      <stop offset="0%" stop-color="#facc15" />
      <stop offset="100%" stop-color="#f97316" />
    </linearGradient>
  </defs>

  <!-- Rounded square background -->
  <rect x="1" y="1" width="38" height="38" rx="10" fill="url(#bg)" />

  <!-- Shopping bag body -->
  <path d="M10 16L12 32H28L30 16H10Z" fill="white" fill-opacity="0.95" />

  <!-- Bag handles -->
  <path d="M15 16V13C15 10.2386 17.2386 8 20 8C22.7614 8 25 10.2386 25 13V16"
        stroke="white" stroke-width="2.5" stroke-linecap="round" fill="none" />

  <!-- Star accent -->
  <circle cx="20" cy="23" r="3.5" fill="url(#accent)" />
  <path d="M20 19.5L20.8 21.8L23.2 21.8L21.2 23.3L22 25.5L20 24L18 25.5L18.8 23.3L16.8 21.8L19.2 21.8Z"
        fill="white" fill-opacity="0.9" />
</svg>
